<?xml version="1.0" standalone="no"?>
<!DOCTYPE svg PUBLIC "-//W3C//DTD SVG 20010904//EN"
 "http://www.w3.org/TR/2001/REC-SVG-20010904/DTD/svg10.dtd">
<svg version="1.0" xmlns="http://www.w3.org/2000/svg"
 width="1276.000000pt" height="1280.000000pt" viewBox="0 0 1276.000000 1280.000000"
 preserveAspectRatio="xMidYMid meet">
<metadata>
Created by potrace 1.15, written by Peter Selinger 2001-2017
</metadata>
<g transform="translate(0.000000,1280.000000) scale(0.100000,-0.100000)"
fill="#000000" stroke="none">
<path d="M6331 12789 c-13 -5 -1043 -1025 -2290 -2266 -3775 -3760 -3628
-3612 -3641 -3660 -13 -53 8 -113 54 -146 30 -22 38 -22 401 -28 204 -3 371
-6 373 -7 1 -1 2 -1294 2 -2873 0 -2017 3 -2883 11 -2913 15 -61 74 -134 139
-170 l55 -31 1685 -5 c927 -3 1591 -7 1475 -9 l-210 -4 125 -7 c114 -7 205
-13 345 -25 28 -2 100 -7 160 -11 61 -3 133 -7 160 -9 28 -2 140 -6 250 -10
110 -4 203 -9 207 -11 9 -6 1487 -6 1496 0 4 2 97 7 207 11 110 4 220 8 245
10 25 1 99 6 165 9 66 4 138 9 160 11 80 8 223 18 345 25 l125 7 -210 4 c-115
2 548 6 1475 9 l1685 5 41 22 c63 34 97 66 129 125 l30 53 3 2898 2 2898 368
-2 c325 -2 371 0 399 15 34 17 49 39 63 87 21 74 47 46 -906 999 l-894 895 -2
1160 -3 1160 -24 60 c-32 79 -109 155 -186 184 -56 21 -65 21 -798 19 l-742
-3 -50 -24 c-63 -32 -124 -93 -156 -156 -22 -46 -24 -65 -29 -226 l-5 -176
-1045 1039 c-575 572 -1058 1048 -1075 1059 -32 20 -75 24 -114 8z"/>
</g>
</svg>
